# xmcd
#
# Track frame offsets:
#	150
#	21371
#	33735
#	67118
#	99500
#	113480
#	128494
#	145204
#	168868
#	186540
#	200697
#	219850
#	239361
#	258607
#	277212
#
# Disc length: 3918 seconds
#
# Revision: 1
# Processed by: cddbd v1.5.2PL0 Copyright (c) Steve Scherf et al.
# Submitted via: audiograbber 1.83.01
#
DISCID=e60f4c0f
DTITLE=Various Artist - Bar Jamaica
DYEAR=2008
DGENRE=Reggae
TTITLE0=Peter Tosh - Legalize It
TTITLE1=Johnny Nash - I Can See Clearly Now
TTITLE2=Keith Hudson - Nah Skin Up
TTITLE3=Dennis Brown - Judge Not
TTITLE4=Augustus Pablo - Jah Dread
TTITLE5=Freddie McGregor - Big Ship
TTITLE6=John Holt - Last Train From The Ghetto
TTITLE7=Aswad - Not Satisfied
TTITLE8=Barrington Levy - A Ya We Deh
TTITLE9=Black Uhuru - Tonight Is The Night to Unite
TTITLE10=Mighty Diamonds - Sensemilla
TTITLE11=Gregory Isaacs - Slow Down
TTITLE12=Sugar Minott - Good Thing Going
TTITLE13=Jimmy Cliff - Reggae Night
TTITLE14=Wailing Souls - All Over The World
EXTD=
EXTT0=
EXTT1=
EXTT2=
EXTT3=
EXTT4=
EXTT5=
EXTT6=
EXTT7=
EXTT8=
EXTT9=
EXTT10=
EXTT11=
EXTT12=
EXTT13=
EXTT14=
PLAYORDER=
